<?xml version="1.0" encoding="utf-8"?>
<!-- Generator: Adobe Illustrator 15.1.0, SVG Export Plug-In . SVG Version: 6.00 Build 0)  -->
<!DOCTYPE svg PUBLIC "-//W3C//DTD SVG 1.1//EN" "http://www.w3.org/Graphics/SVG/1.1/DTD/svg11.dtd">
<svg version="1.1" id="Layer_1" xmlns="http://www.w3.org/2000/svg" xmlns:xlink="http://www.w3.org/1999/xlink" x="0px" y="0px"
	 width="300px" height="300px" viewBox="0 0 300 300" enable-background="new 0 0 300 300" xml:space="preserve">
<g>
	<path d="M149.413,259.025c0,0-41.492,33.147-45.486-16.19c0,0-40.538,16.19-30.553-26.416c0,0-38.978,3.989-26.996-34.131
		l-1.387-3.451c-34.947-25.586,5.019-55.435,5.019-55.435C38.03,85.28,75.53,84.292,75.53,84.292
		c-9.981-42.607,30.555-26.415,30.555-26.415c3.993-49.336,41.333-16.19,41.333-16.19L149.413,259.025z"/>
	<path d="M154.251,258.258c0,0,38.819,33.146,42.813-16.191c0,0,40.537,16.193,30.553-26.415c0,0,38.977,3.992,26.995-34.131
		l1.387-3.448c34.947-25.586-5.02-55.437-5.02-55.437c11.981-38.123-25.521-39.11-25.521-39.11
		c9.982-42.607-30.554-26.415-30.554-26.415c-3.992-49.336-41.333-16.19-41.333-16.19L154.251,258.258z"/>
	<g>
		<path fill="#FFFFFF" stroke="#FFFFFF" stroke-width="5.9415" stroke-miterlimit="10" d="M205.315,222.718h-16.261V104.385
			l-34.001,80.521h-9.693l-33.755-80.521v118.333H96.414V85.387h22.173l32.604,76.458l31.539-76.458h22.585V222.718z"/>
	</g>
</g>
</svg>
